# Blender v2.77 (sub 0) OBJ File: 'floor-tiles.blend'
# www.blender.org
mtllib blank.mtl
o Blank_Cube.003
v -1.000000 0.000000 1.000000
v -1.000000 0.250000 1.000000
v -1.000000 0.000000 -1.000000
v -1.000000 0.250000 -1.000000
v 1.000000 0.000000 1.000000
v 1.000000 0.250000 1.000000
v 1.000000 0.000000 -1.000000
v 1.000000 0.250000 -1.000000
v -1.002181 0.252181 0.818711
v -1.003960 0.253960 0.637108
v -1.005314 0.255314 0.455257
v -1.006226 0.256226 0.273227
v -1.006685 0.256685 0.091088
v -1.006685 0.256685 -0.091088
v -1.006226 0.256226 -0.273227
v -1.005314 0.255314 -0.455257
v -1.003960 0.253960 -0.637108
v -1.002181 0.252181 -0.818711
v -0.818711 0.252181 -1.002181
v -0.637108 0.253960 -1.003960
v -0.455257 0.255314 -1.005314
v -0.273227 0.256226 -1.006226
v -0.091088 0.256685 -1.006685
v 0.091088 0.256685 -1.006685
v 0.273227 0.256226 -1.006226
v 0.455257 0.255314 -1.005314
v 0.637108 0.253960 -1.003960
v 0.818711 0.252181 -1.002181
v 1.002181 0.252181 -0.818711
v 1.003960 0.253960 -0.637108
v 1.005314 0.255314 -0.455257
v 1.006226 0.256226 -0.273227
v 1.006685 0.256685 -0.091088
v 1.006685 0.256685 0.091088
v 1.006226 0.256226 0.273227
v 1.005314 0.255314 0.455257
v 1.003960 0.253960 0.637108
v 1.002181 0.252181 0.818711
v 0.818711 0.252181 1.002181
v 0.637108 0.253960 1.003960
v 0.455257 0.255314 1.005314
v 0.273227 0.256226 1.006226
v 0.091088 0.256685 1.006685
v -0.091088 0.256685 1.006685
v -0.273227 0.256226 1.006226
v -0.455257 0.255314 1.005314
v -0.637108 0.253960 1.003960
v -0.818711 0.252181 1.002181
v 0.820577 0.254746 0.820809
v 0.638611 0.256843 0.822525
v 0.456359 0.258443 0.823834
v 0.273899 0.259522 0.824717
v 0.091314 0.260066 0.825162
v -0.091314 0.260066 0.825162
v -0.273899 0.259522 0.824717
v -0.456359 0.258443 0.823834
v -0.638611 0.256843 0.822525
v -0.820577 0.254746 0.820809
v 0.822117 0.256945 0.639007
v 0.639864 0.259393 0.640565
v 0.457283 0.261264 0.641756
v 0.274466 0.262529 0.642561
v 0.091505 0.263167 0.642967
v -0.091505 0.263167 0.642967
v -0.274466 0.262529 0.642561
v -0.457283 0.261264 0.641756
v -0.639864 0.259393 0.640565
v -0.822117 0.256945 0.639008
v 0.823307 0.258718 0.456805
v 0.640841 0.261518 0.458077
v 0.458010 0.263663 0.459052
v 0.274914 0.265115 0.459712
v 0.091656 0.265848 0.460045
v -0.091656 0.265848 0.460045
v -0.274914 0.265115 0.459712
v -0.458010 0.263663 0.459052
v -0.640841 0.261518 0.458077
v -0.823307 0.258718 0.456805
v 0.824119 0.259983 0.274251
v 0.641515 0.263080 0.275096
v 0.458515 0.265458 0.275744
v 0.275226 0.267069 0.276184
v 0.091762 0.267882 0.276406
v -0.091762 0.267882 0.276406
v -0.275226 0.267069 0.276184
v -0.458515 0.265458 0.275744
v -0.641515 0.263080 0.275096
v -0.824119 0.259983 0.274251
v 0.824532 0.260648 0.091448
v 0.641861 0.263920 0.091745
v 0.458775 0.266433 0.091974
v 0.275388 0.268138 0.092129
v 0.091816 0.268999 0.092207
v -0.091817 0.268999 0.092207
v -0.275388 0.268138 0.092129
v -0.458776 0.266433 0.091974
v -0.641861 0.263920 0.091745
v -0.824532 0.260648 0.091448
v 0.824532 0.260648 -0.091448
v 0.641861 0.263920 -0.091745
v 0.458775 0.266433 -0.091974
v 0.275388 0.268138 -0.092129
v 0.091816 0.268999 -0.092207
v -0.091817 0.268999 -0.092207
v -0.275388 0.268138 -0.092129
v -0.458776 0.266433 -0.091974
v -0.641861 0.263920 -0.091745
v -0.824532 0.260648 -0.091448
v 0.824119 0.259983 -0.274251
v 0.641515 0.263080 -0.275096
v 0.458515 0.265458 -0.275744
v 0.275226 0.267069 -0.276184
v 0.091762 0.267882 -0.276406
v -0.091762 0.267882 -0.276406
v -0.275226 0.267069 -0.276184
v -0.458515 0.265458 -0.275744
v -0.641515 0.263080 -0.275096
v -0.824119 0.259983 -0.274251
v 0.823307 0.258718 -0.456805
v 0.640841 0.261518 -0.458077
v 0.458010 0.263663 -0.459052
v 0.274914 0.265115 -0.459712
v 0.091656 0.265848 -0.460045
v -0.091656 0.265848 -0.460045
v -0.274914 0.265115 -0.459712
v -0.458010 0.263663 -0.459052
v -0.640841 0.261518 -0.458077
v -0.823307 0.258718 -0.456805
v 0.822117 0.256945 -0.639007
v 0.639864 0.259393 -0.640565
v 0.457283 0.261264 -0.641756
v 0.274466 0.262529 -0.642561
v 0.091505 0.263167 -0.642967
v -0.091505 0.263167 -0.642967
v -0.274466 0.262529 -0.642561
v -0.457283 0.261264 -0.641756
v -0.639864 0.259393 -0.640565
v -0.822117 0.256945 -0.639008
v 0.820577 0.254746 -0.820809
v 0.638611 0.256843 -0.822525
v 0.456359 0.258443 -0.823834
v 0.273899 0.259522 -0.824717
v 0.091314 0.260066 -0.825162
v -0.091314 0.260066 -0.825162
v -0.273899 0.259522 -0.824717
v -0.456359 0.258443 -0.823834
v -0.638611 0.256843 -0.822525
v -0.820577 0.254746 -0.820809
vt 0.000000 0.000000
vt 0.000000 0.000000
vt 0.000000 0.000000
vt 0.000000 0.000000
vt 0.000000 0.000000
vt 0.000000 0.000000
vt 0.000000 0.000000
vt 0.000000 0.000000
vt 0.000000 0.000000
vt 0.000000 0.000000
vt 0.000000 0.000000
vt 0.000000 0.000000
vt 0.000000 0.000000
vt 0.000000 0.000000
vt 0.000000 0.000000
vt 0.000000 0.000000
vt 0.000000 0.000000
vt 0.000000 0.000000
vt 0.000000 0.000000
vt 0.000000 0.000000
vt 0.000000 0.000000
vt 0.000000 0.000000
vt 0.000000 0.000000
vt 0.000000 0.000000
vt 0.000000 0.000000
vt 0.000000 0.000000
vt 0.000000 0.000000
vt 0.000000 0.000000
vt 0.000000 0.000000
vt 0.000000 0.000000
vt 0.000000 0.000000
vt 0.000000 0.000000
vt 0.000000 0.000000
vt 0.000000 0.000000
vt 0.000000 0.000000
vt 0.000000 0.000000
vt 0.000000 0.000000
vt 0.000000 0.000000
vt 0.000000 0.000000
vt 0.000000 0.000000
vt 0.000000 0.000000
vt 0.000000 0.000000
vt 0.000000 0.000000
vt 0.000000 0.000000
vt 0.000000 0.000000
vt 0.000000 0.000000
vt 0.000000 0.000000
vt 0.000000 0.000000
vt 0.090991 0.909009
vt 0.090991 0.999900
vt 0.000100 0.999900
vt 0.000100 0.909009
vt 0.090991 0.000100
vt 0.090991 0.090991
vt 0.000100 0.090991
vt 0.000100 0.000100
vt 0.090991 0.181882
vt 0.000100 0.181882
vt 0.090991 0.272773
vt 0.000100 0.272773
vt 0.090991 0.363664
vt 0.000100 0.363664
vt 0.090991 0.454555
vt 0.000100 0.454555
vt 0.090991 0.545445
vt 0.000100 0.545445
vt 0.090991 0.636336
vt 0.000100 0.636336
vt 0.090991 0.727227
vt 0.000100 0.727227
vt 0.090991 0.818118
vt 0.000100 0.818118
vt 0.999900 0.000100
vt 0.999900 0.090991
vt 0.909009 0.090991
vt 0.909009 0.000100
vt 0.818118 0.090991
vt 0.818118 0.000100
vt 0.727227 0.090991
vt 0.727227 0.000100
vt 0.636336 0.090991
vt 0.636336 0.000100
vt 0.545445 0.090991
vt 0.545445 0.000100
vt 0.454555 0.090991
vt 0.454555 0.000100
vt 0.363664 0.090991
vt 0.363664 0.000100
vt 0.272773 0.090991
vt 0.272773 0.000100
vt 0.181882 0.090991
vt 0.181882 0.000100
vt 0.999900 0.181882
vt 0.909009 0.181882
vt 0.818118 0.181882
vt 0.727227 0.181882
vt 0.636336 0.181882
vt 0.545445 0.181882
vt 0.454555 0.181882
vt 0.363664 0.181882
vt 0.272773 0.181882
vt 0.181882 0.181882
vt 0.999900 0.272773
vt 0.909009 0.272773
vt 0.818118 0.272773
vt 0.727227 0.272773
vt 0.636336 0.272773
vt 0.545445 0.272773
vt 0.454555 0.272773
vt 0.363664 0.272773
vt 0.272773 0.272773
vt 0.181882 0.272773
vt 0.999900 0.363664
vt 0.909009 0.363664
vt 0.818118 0.363664
vt 0.727227 0.363664
vt 0.636336 0.363664
vt 0.545445 0.363664
vt 0.454555 0.363664
vt 0.363664 0.363664
vt 0.272773 0.363664
vt 0.181882 0.363664
vt 0.999900 0.454555
vt 0.909009 0.454555
vt 0.818118 0.454555
vt 0.727227 0.454555
vt 0.636336 0.454555
vt 0.545445 0.454555
vt 0.454555 0.454555
vt 0.363664 0.454555
vt 0.272773 0.454555
vt 0.181882 0.454555
vt 0.999900 0.545445
vt 0.909009 0.545445
vt 0.818118 0.545445
vt 0.727227 0.545445
vt 0.636336 0.545445
vt 0.545445 0.545445
vt 0.454555 0.545445
vt 0.363664 0.545445
vt 0.272773 0.545445
vt 0.181882 0.545445
vt 0.999900 0.636336
vt 0.909009 0.636336
vt 0.818118 0.636336
vt 0.727227 0.636336
vt 0.636336 0.636336
vt 0.545445 0.636336
vt 0.454555 0.636336
vt 0.363664 0.636336
vt 0.272773 0.636336
vt 0.181882 0.636336
vt 0.999900 0.727227
vt 0.909009 0.727227
vt 0.818118 0.727227
vt 0.727227 0.727227
vt 0.636336 0.727227
vt 0.545445 0.727227
vt 0.454555 0.727227
vt 0.363664 0.727227
vt 0.272773 0.727227
vt 0.181882 0.727227
vt 0.999900 0.818118
vt 0.909009 0.818118
vt 0.818118 0.818118
vt 0.727227 0.818118
vt 0.636336 0.818118
vt 0.545445 0.818118
vt 0.454555 0.818118
vt 0.363664 0.818118
vt 0.272773 0.818118
vt 0.181882 0.818118
vt 0.999900 0.909009
vt 0.909009 0.909009
vt 0.818118 0.909009
vt 0.727227 0.909009
vt 0.636336 0.909009
vt 0.545445 0.909009
vt 0.454555 0.909009
vt 0.363664 0.909009
vt 0.272773 0.909009
vt 0.181882 0.909009
vt 0.999900 0.999900
vt 0.909009 0.999900
vt 0.818118 0.999900
vt 0.727227 0.999900
vt 0.636336 0.999900
vt 0.545446 0.999900
vt 0.454555 0.999900
vt 0.363664 0.999900
vt 0.272773 0.999900
vt 0.181882 0.999900
vn -0.999800 -0.017400 0.000000
vn 0.000000 -0.017400 -0.999800
vn 0.999800 -0.017400 -0.000000
vn 0.000000 -0.017400 0.999800
vn 0.000000 -1.000000 0.000000
vn -0.013200 0.999800 -0.013200
vn -0.013200 0.999800 0.013200
vn -0.015400 0.999800 0.011100
vn -0.017600 0.999800 0.008700
vn -0.019700 0.999800 0.006100
vn -0.021200 0.999800 0.003100
vn -0.021800 0.999800 0.000000
vn -0.021200 0.999800 -0.003100
vn -0.019700 0.999800 -0.006100
vn -0.017600 0.999800 -0.008700
vn -0.015400 0.999800 -0.011100
vn 0.013200 0.999800 0.013200
vn 0.010800 0.999800 0.015100
vn 0.008200 0.999800 0.016600
vn 0.005600 0.999800 0.017700
vn 0.002800 0.999800 0.018400
vn 0.000000 0.999800 0.018600
vn -0.002800 0.999800 0.018400
vn -0.005600 0.999800 0.017700
vn -0.008200 0.999800 0.016600
vn -0.010800 0.999800 0.015100
vn 0.015400 0.999800 0.011100
vn 0.012600 0.999800 0.013100
vn 0.009600 0.999800 0.014800
vn 0.006500 0.999900 0.016000
vn 0.003300 0.999900 0.016800
vn -0.000000 0.999900 0.017000
vn -0.003300 0.999900 0.016800
vn -0.006500 0.999900 0.016000
vn -0.009600 0.999800 0.014800
vn -0.012600 0.999800 0.013100
vn 0.017600 0.999800 0.008700
vn 0.014500 0.999800 0.010800
vn 0.011100 0.999900 0.012400
vn 0.007500 0.999900 0.013700
vn 0.003800 0.999900 0.014400
vn -0.000000 0.999900 0.014700
vn -0.003800 0.999900 0.014400
vn -0.007500 0.999900 0.013700
vn -0.011100 0.999900 0.012400
vn -0.014500 0.999800 0.010800
vn 0.019700 0.999800 0.006100
vn 0.016200 0.999800 0.007800
vn 0.012400 0.999900 0.009200
vn 0.008400 0.999900 0.010200
vn 0.004200 0.999900 0.010900
vn -0.000000 0.999900 0.011100
vn -0.004200 0.999900 0.010900
vn -0.008400 0.999900 0.010200
vn -0.012400 0.999900 0.009200
vn -0.016200 0.999800 0.007800
vn 0.021200 0.999800 0.003100
vn 0.017400 0.999800 0.004100
vn 0.013400 0.999900 0.005000
vn 0.009100 0.999900 0.005600
vn 0.004600 1.000000 0.005900
vn -0.000000 1.000000 0.006100
vn -0.004600 1.000000 0.005900
vn -0.009100 0.999900 0.005600
vn -0.013400 0.999900 0.005000
vn -0.017400 0.999800 0.004100
vn 0.021800 0.999800 0.000000
vn 0.017900 0.999800 0.000000
vn 0.013700 0.999900 0.000000
vn 0.009300 1.000000 0.000000
vn 0.004700 1.000000 0.000000
vn -0.000000 1.000000 0.000000
vn -0.004700 1.000000 0.000000
vn -0.009300 1.000000 0.000000
vn -0.013700 0.999900 0.000000
vn -0.017900 0.999800 0.000000
vn 0.021200 0.999800 -0.003100
vn 0.017400 0.999800 -0.004100
vn 0.013400 0.999900 -0.005000
vn 0.009100 0.999900 -0.005600
vn 0.004600 1.000000 -0.005900
vn -0.000000 1.000000 -0.006100
vn -0.004600 1.000000 -0.005900
vn -0.009100 0.999900 -0.005600
vn -0.013400 0.999900 -0.005000
vn -0.017400 0.999800 -0.004100
vn 0.019700 0.999800 -0.006100
vn 0.016200 0.999800 -0.007800
vn 0.012400 0.999900 -0.009200
vn 0.008400 0.999900 -0.010200
vn 0.004200 0.999900 -0.010900
vn -0.000000 0.999900 -0.011100
vn -0.004200 0.999900 -0.010900
vn -0.008400 0.999900 -0.010200
vn -0.012400 0.999900 -0.009200
vn -0.016200 0.999800 -0.007800
vn 0.017600 0.999800 -0.008700
vn 0.014500 0.999800 -0.010800
vn 0.011100 0.999900 -0.012400
vn 0.007500 0.999900 -0.013700
vn 0.003800 0.999900 -0.014400
vn -0.000000 0.999900 -0.014700
vn -0.003800 0.999900 -0.014400
vn -0.007500 0.999900 -0.013700
vn -0.011100 0.999900 -0.012400
vn -0.014500 0.999800 -0.010800
vn 0.015400 0.999800 -0.011100
vn 0.012600 0.999800 -0.013100
vn 0.009600 0.999800 -0.014800
vn 0.006500 0.999900 -0.016000
vn 0.003300 0.999900 -0.016800
vn -0.000000 0.999900 -0.017000
vn -0.003300 0.999900 -0.016800
vn -0.006500 0.999900 -0.016000
vn -0.009600 0.999800 -0.014800
vn -0.012600 0.999800 -0.013100
vn 0.013200 0.999800 -0.013200
vn 0.010800 0.999800 -0.015100
vn 0.008200 0.999800 -0.016600
vn 0.005600 0.999800 -0.017700
vn 0.002800 0.999800 -0.018400
vn 0.000000 0.999800 -0.018600
vn -0.002800 0.999800 -0.018400
vn -0.005600 0.999800 -0.017700
vn -0.008200 0.999800 -0.016600
vn -0.010800 0.999800 -0.015100
usemtl None
s off
f 2/1/1 9/2/1 10/3/1 11/4/1 12/5/1 13/6/1 14/7/1 15/8/1 16/9/1 17/10/1 18/11/1 4/12/1 3/13/1 1/14/1
f 4/12/2 19/15/2 20/16/2 21/17/2 22/18/2 23/19/2 24/20/2 25/21/2 26/22/2 27/23/2 28/24/2 8/25/2 7/26/2 3/13/2
f 8/25/3 29/27/3 30/28/3 31/29/3 32/30/3 33/31/3 34/32/3 35/33/3 36/34/3 37/35/3 38/36/3 6/37/3 5/38/3 7/26/3
f 6/37/4 39/39/4 40/40/4 41/41/4 42/42/4 43/43/4 44/44/4 45/45/4 46/46/4 47/47/4 48/48/4 2/1/4 1/14/4 5/38/4
f 1/14/5 3/13/5 7/26/5 5/38/5
f 148/49/6 19/50/6 4/51/6 18/52/6
f 48/53/7 58/54/7 9/55/7 2/56/7
f 58/54/8 68/57/8 10/58/8 9/55/8
f 68/57/9 78/59/9 11/60/9 10/58/9
f 78/59/10 88/61/10 12/62/10 11/60/10
f 88/61/11 98/63/11 13/64/11 12/62/11
f 98/63/12 108/65/12 14/66/12 13/64/12
f 108/65/13 118/67/13 15/68/13 14/66/13
f 118/67/14 128/69/14 16/70/14 15/68/14
f 128/69/15 138/71/15 17/72/15 16/70/15
f 138/71/16 148/49/16 18/52/16 17/72/16
f 6/73/17 38/74/17 49/75/17 39/76/17
f 39/76/18 49/75/18 50/77/18 40/78/18
f 40/78/19 50/77/19 51/79/19 41/80/19
f 41/80/20 51/79/20 52/81/20 42/82/20
f 42/82/21 52/81/21 53/83/21 43/84/21
f 43/84/22 53/83/22 54/85/22 44/86/22
f 44/86/23 54/85/23 55/87/23 45/88/23
f 45/88/24 55/87/24 56/89/24 46/90/24
f 46/90/25 56/89/25 57/91/25 47/92/25
f 47/92/26 57/91/26 58/54/26 48/53/26
f 38/74/27 37/93/27 59/94/27 49/75/27
f 49/75/28 59/94/28 60/95/28 50/77/28
f 50/77/29 60/95/29 61/96/29 51/79/29
f 51/79/30 61/96/30 62/97/30 52/81/30
f 52/81/31 62/97/31 63/98/31 53/83/31
f 53/83/32 63/98/32 64/99/32 54/85/32
f 54/85/33 64/99/33 65/100/33 55/87/33
f 55/87/34 65/100/34 66/101/34 56/89/34
f 56/89/35 66/101/35 67/102/35 57/91/35
f 57/91/36 67/102/36 68/57/36 58/54/36
f 37/93/37 36/103/37 69/104/37 59/94/37
f 59/94/38 69/104/38 70/105/38 60/95/38
f 60/95/39 70/105/39 71/106/39 61/96/39
f 61/96/40 71/106/40 72/107/40 62/97/40
f 62/97/41 72/107/41 73/108/41 63/98/41
f 63/98/42 73/108/42 74/109/42 64/99/42
f 64/99/43 74/109/43 75/110/43 65/100/43
f 65/100/44 75/110/44 76/111/44 66/101/44
f 66/101/45 76/111/45 77/112/45 67/102/45
f 67/102/46 77/112/46 78/59/46 68/57/46
f 36/103/47 35/113/47 79/114/47 69/104/47
f 69/104/48 79/114/48 80/115/48 70/105/48
f 70/105/49 80/115/49 81/116/49 71/106/49
f 71/106/50 81/116/50 82/117/50 72/107/50
f 72/107/51 82/117/51 83/118/51 73/108/51
f 73/108/52 83/118/52 84/119/52 74/109/52
f 74/109/53 84/119/53 85/120/53 75/110/53
f 75/110/54 85/120/54 86/121/54 76/111/54
f 76/111/55 86/121/55 87/122/55 77/112/55
f 77/112/56 87/122/56 88/61/56 78/59/56
f 35/113/57 34/123/57 89/124/57 79/114/57
f 79/114/58 89/124/58 90/125/58 80/115/58
f 80/115/59 90/125/59 91/126/59 81/116/59
f 81/116/60 91/126/60 92/127/60 82/117/60
f 82/117/61 92/127/61 93/128/61 83/118/61
f 83/118/62 93/128/62 94/129/62 84/119/62
f 84/119/63 94/129/63 95/130/63 85/120/63
f 85/120/64 95/130/64 96/131/64 86/121/64
f 86/121/65 96/131/65 97/132/65 87/122/65
f 87/122/66 97/132/66 98/63/66 88/61/66
f 34/123/67 33/133/67 99/134/67 89/124/67
f 89/124/68 99/134/68 100/135/68 90/125/68
f 90/125/69 100/135/69 101/136/69 91/126/69
f 91/126/70 101/136/70 102/137/70 92/127/70
f 92/127/71 102/137/71 103/138/71 93/128/71
f 93/128/72 103/138/72 104/139/72 94/129/72
f 94/129/73 104/139/73 105/140/73 95/130/73
f 95/130/74 105/140/74 106/141/74 96/131/74
f 96/131/75 106/141/75 107/142/75 97/132/75
f 97/132/76 107/142/76 108/65/76 98/63/76
f 33/133/77 32/143/77 109/144/77 99/134/77
f 99/134/78 109/144/78 110/145/78 100/135/78
f 100/135/79 110/145/79 111/146/79 101/136/79
f 101/136/80 111/146/80 112/147/80 102/137/80
f 102/137/81 112/147/81 113/148/81 103/138/81
f 103/138/82 113/148/82 114/149/82 104/139/82
f 104/139/83 114/149/83 115/150/83 105/140/83
f 105/140/84 115/150/84 116/151/84 106/141/84
f 106/141/85 116/151/85 117/152/85 107/142/85
f 107/142/86 117/152/86 118/67/86 108/65/86
f 32/143/87 31/153/87 119/154/87 109/144/87
f 109/144/88 119/154/88 120/155/88 110/145/88
f 110/145/89 120/155/89 121/156/89 111/146/89
f 111/146/90 121/156/90 122/157/90 112/147/90
f 112/147/91 122/157/91 123/158/91 113/148/91
f 113/148/92 123/158/92 124/159/92 114/149/92
f 114/149/93 124/159/93 125/160/93 115/150/93
f 115/150/94 125/160/94 126/161/94 116/151/94
f 116/151/95 126/161/95 127/162/95 117/152/95
f 117/152/96 127/162/96 128/69/96 118/67/96
f 31/153/97 30/163/97 129/164/97 119/154/97
f 119/154/98 129/164/98 130/165/98 120/155/98
f 120/155/99 130/165/99 131/166/99 121/156/99
f 121/156/100 131/166/100 132/167/100 122/157/100
f 122/157/101 132/167/101 133/168/101 123/158/101
f 123/158/102 133/168/102 134/169/102 124/159/102
f 124/159/103 134/169/103 135/170/103 125/160/103
f 125/160/104 135/170/104 136/171/104 126/161/104
f 126/161/105 136/171/105 137/172/105 127/162/105
f 127/162/106 137/172/106 138/71/106 128/69/106
f 30/163/107 29/173/107 139/174/107 129/164/107
f 129/164/108 139/174/108 140/175/108 130/165/108
f 130/165/109 140/175/109 141/176/109 131/166/109
f 131/166/110 141/176/110 142/177/110 132/167/110
f 132/167/111 142/177/111 143/178/111 133/168/111
f 133/168/112 143/178/112 144/179/112 134/169/112
f 134/169/113 144/179/113 145/180/113 135/170/113
f 135/170/114 145/180/114 146/181/114 136/171/114
f 136/171/115 146/181/115 147/182/115 137/172/115
f 137/172/116 147/182/116 148/49/116 138/71/116
f 29/173/117 8/183/117 28/184/117 139/174/117
f 139/174/118 28/184/118 27/185/118 140/175/118
f 140/175/119 27/185/119 26/186/119 141/176/119
f 141/176/120 26/186/120 25/187/120 142/177/120
f 142/177/121 25/187/121 24/188/121 143/178/121
f 143/178/122 24/188/122 23/189/122 144/179/122
f 144/179/123 23/189/123 22/190/123 145/180/123
f 145/180/124 22/190/124 21/191/124 146/181/124
f 146/181/125 21/191/125 20/192/125 147/182/125
f 147/182/126 20/192/126 19/50/126 148/49/126
