# Blender v2.77 (sub 0) OBJ File: 'floor-tiles.blend'
# www.blender.org
mtllib window.mtl
o Window_Cube.005
v -1.000000 0.000000 1.000000
v -1.000000 0.250000 1.000000
v -1.000000 0.000000 -1.000000
v -1.000000 0.250000 -1.000000
v 1.000000 0.000000 1.000000
v 1.000000 0.250000 1.000000
v 1.000000 0.000000 -1.000000
v 1.000000 0.250000 -1.000000
v -1.000000 0.250000 -0.750000
v -1.000000 0.250000 -1.000000
v 1.000000 0.250000 -1.000000
v 1.000000 0.250000 -0.750000
v -1.000000 4.000000 -0.750000
v -1.000000 4.000000 -1.000000
v 1.000000 4.000000 -1.000000
v 1.000000 4.000000 -0.750000
v 0.750000 1.656250 -0.750000
v -0.750000 1.656250 -0.750000
v 0.750000 2.593750 -0.750000
v -0.750000 2.593750 -0.750000
v 0.750000 1.656250 -0.889918
v -0.750000 1.656250 -0.889918
v 0.750000 2.593750 -0.889918
v -0.750000 2.593750 -0.889918
vn -1.000000 0.000000 0.000000
vn 0.000000 0.000000 -1.000000
vn 1.000000 0.000000 0.000000
vn 0.000000 0.000000 1.000000
vn 0.000000 -1.000000 0.000000
vn 0.000000 1.000000 0.000000
usemtl None
s off
f 2//1 4//1 3//1 1//1
f 4//2 8//2 7//2 3//2
f 8//3 6//3 5//3 7//3
f 6//4 2//4 1//4 5//4
f 1//5 3//5 7//5 5//5
f 4//4 2//4 9//4 10//4
f 10//1 9//1 13//1 14//1
f 2//6 6//6 12//6 9//6
f 8//4 4//4 10//4 11//4
f 6//4 8//4 11//4 12//4
f 16//6 15//6 14//6 13//6
f 16//4 13//4 20//4 19//4
f 11//2 10//2 14//2 15//2
f 12//3 11//3 15//3 16//3
f 20//3 18//3 22//3 24//3
f 9//4 12//4 17//4 18//4
f 12//4 16//4 19//4 17//4
f 13//4 9//4 18//4 20//4
f 22//4 21//4 23//4 24//4
f 18//6 17//6 21//6 22//6
f 17//1 19//1 23//1 21//1
f 19//5 20//5 24//5 23//5
