# 3ds Max Wavefront OBJ Exporter v0.97b - (c)2007 guruware
# File Created: 23.09.2015 04:50:15

mtllib 3d-model.mtl

#
# object Layer0_001
#

v  -64.3892 201.5764 13.7305
v  -64.4671 31.8765 37.2783
v  -64.4671 31.1893 32.3257
v  -64.3892 200.8892 8.7780
v  65.5329 31.8765 37.2783
v  -85.0001 2.7489 41.3201
v  85.0000 2.7489 41.3201
v  85.0000 240.4711 8.3334
v  65.5329 201.5764 13.7305
v  -85.0001 240.4711 8.3334
v  65.5329 31.1893 32.3257
v  65.5329 200.8892 8.7780
v  85.0000 0.0000 21.5099
v  85.0000 237.7223 -11.4768
v  -85.0001 0.0000 21.5099
v  -85.0001 237.7223 -11.4768
v  -10.0001 0.0000 21.5099
v  10.0000 0.0000 21.5099
v  -10.0001 158.4815 -0.4813
v  10.0000 158.4815 -0.4813
v  -10.0001 0.0000 -41.3201
v  10.0000 0.0000 -41.3201
v  65.5329 30.5021 27.3732
v  65.5329 200.2020 3.8254
v  -64.3892 200.2020 3.8254
v  -64.4671 30.5021 27.3732
# 26 vertices

vn 1.0000 -0.0005 0.0001
vn 0.0000 0.1374 0.9905
vn -1.0000 0.0000 -0.0000
vn 0.0000 -0.9905 0.1374
vn 0.0000 0.9905 -0.1374
vn 0.0000 -0.1374 -0.9905
vn 1.0000 0.0000 -0.0000
vn 0.0000 -1.0000 -0.0000
vn 0.0000 0.2495 -0.9684
vn -0.0000 -0.9905 0.1374
# 10 vertex normals

vt 2.7812 0.9387 0.0000
vt 2.6971 0.1500 0.0000
vt 2.7148 0.1468 0.0000
vt 2.7989 0.9355 0.0000
vt 3.6003 0.6291 0.0000
vt 3.0627 0.4925 0.0000
vt 3.6698 0.4925 0.0000
vt 3.6698 1.6079 0.0000
vt 3.6003 1.4254 0.0000
vt 3.1363 1.4254 0.0000
vt 3.0627 1.6079 0.0000
vt 3.1360 0.6291 0.0000
vt -2.7146 0.1450 0.0000
vt -2.6969 0.1482 0.0000
vt -2.7810 0.9369 0.0000
vt -2.7987 0.9337 0.0000
vt 3.1363 -3.4560 0.0000
vt 3.1363 -3.4793 0.0000
vt 3.6003 -3.4793 0.0000
vt 3.6003 -3.4560 0.0000
vt 2.8003 1.1176 0.0000
vt 2.6825 0.0128 0.0000
vt 2.7532 0.0000 0.0000
vt 2.8710 1.1049 0.0000
vt -2.7532 0.0000 0.0000
vt -2.6825 0.0128 0.0000
vt -2.8003 1.1176 0.0000
vt -2.8710 1.1049 0.0000
vt 3.0627 -3.4560 0.0000
vt 3.0627 -3.5490 0.0000
vt 3.3305 -3.5490 0.0000
vt 3.6698 -3.4560 0.0000
vt 3.4020 -3.5490 0.0000
vt 3.6698 -3.5490 0.0000
vt -3.0627 -3.5490 0.0000
vt -3.0627 -3.4560 0.0000
vt -3.6698 -3.4560 0.0000
vt -3.6698 -3.5490 0.0000
vt -3.3305 0.4925 0.0000
vt -3.0627 0.4925 0.0000
vt -3.0627 1.6079 0.0000
vt -3.3305 1.2361 0.0000
vt -3.4020 1.2361 0.0000
vt -3.6698 1.6079 0.0000
vt -3.6698 0.4925 0.0000
vt -3.4020 0.4925 0.0000
vt -3.1360 -3.4793 0.0000
vt -3.1360 -3.4560 0.0000
vt -3.6003 -3.4560 0.0000
vt -3.6003 -3.4793 0.0000
vt -2.9776 0.0000 0.0000
vt -2.8318 0.7366 0.0000
vt 2.9776 0.0000 0.0000
vt 2.8318 0.7366 0.0000
vt -3.3305 3.5830 0.0000
vt -3.3305 3.8750 0.0000
vt -3.4020 3.8750 0.0000
vt -3.4020 3.5830 0.0000
vt -3.4020 -0.9670 0.0000
vt -3.3305 -0.9670 0.0000
vt -3.3305 -0.2063 0.0000
vt -3.4020 -0.2063 0.0000
vt -6.5794 0.2941 0.0000
vt -6.5294 0.2941 0.0000
vt -6.5294 2.0073 0.0000
vt -6.5794 2.0073 0.0000
vt -7.7119 6.5294 0.0000
vt -7.7119 6.5794 0.0000
vt -9.0111 6.5794 0.0000
vt -9.0111 6.5294 0.0000
vt 6.5294 2.0108 0.0000
vt 6.5294 0.2976 0.0000
vt 6.5794 0.2976 0.0000
vt 6.5794 2.0108 0.0000
vt 7.7111 6.5794 0.0000
vt 7.7111 6.5294 0.0000
vt 9.0111 6.5294 0.0000
vt 9.0111 6.5794 0.0000
vt 0.0000 0.0000 0.0000
vt 1.0000 -0.0000 0.0000
vt 1.0000 0.9504 0.0000
vt 0.0006 0.9504 0.0000
# 82 texture coords

g Layer0_001
usemtl wire_224086086
s off
f 1/1/1 2/2/1 3/3/1 4/4/1 
f 5/5/2 6/6/2 7/7/2 8/8/2 
f 9/9/2 5/5/2 8/8/2 1/10/2 
f 1/10/2 8/8/2 10/11/2 2/12/2 
f 2/12/2 10/11/2 6/6/2 5/5/2 
f 11/13/3 5/14/3 9/15/3 12/16/3 
f 1/17/4 4/18/4 12/19/4 9/20/4 
f 8/21/1 7/22/1 13/23/1 14/24/1 
f 15/25/3 6/26/3 10/27/3 16/28/3 
f 6/29/4 15/30/4 17/31/4 7/32/4 
f 7/32/4 17/31/4 18/33/4 13/34/4 
f 16/35/5 10/36/5 8/37/5 14/38/5 
f 17/39/6 15/40/6 16/41/6 19/42/6 
f 20/43/6 19/42/6 16/41/6 14/44/6 
f 20/43/6 14/44/6 13/45/6 18/46/6 
f 3/47/5 2/48/5 5/49/5 11/50/5 
f 21/51/3 17/25/3 19/52/3 
f 22/53/7 20/54/7 18/23/7 
f 17/55/8 21/56/8 22/57/8 18/58/8 
f 22/59/9 21/60/9 19/61/9 20/62/9 
f 23/63/3 11/64/3 12/65/3 24/66/3 
f 4/67/10 25/68/10 24/69/10 12/70/10 
f 4/71/1 3/72/1 26/73/1 25/74/1 
f 26/75/5 3/76/5 11/77/5 23/78/5 
f 18/79/6 17/79/6 19/79/6 20/79/6 
f 3/79/2 11/80/2 12/81/2 4/82/2 
# 24 polygons - 2 triangles

