# Blender v2.77 (sub 0) OBJ File: 'ceiling-tiles.blend'
# www.blender.org
mtllib fire-alarm.mtl
o FireAlarm_Cube.002
v -1.000000 3.750000 1.000000
v -1.000000 4.000000 1.000000
v -1.000000 3.750000 -1.000000
v -1.000000 4.000000 -1.000000
v 1.000000 3.750000 1.000000
v 1.000000 4.000000 1.000000
v 1.000000 3.750000 -1.000000
v 1.000000 4.000000 -1.000000
v 0.000000 3.692903 -0.230064
v 0.000000 3.761311 -0.230064
v 0.044883 3.692903 -0.225643
v 0.044883 3.761311 -0.225643
v 0.088042 3.692903 -0.212551
v 0.088042 3.761311 -0.212551
v 0.127817 3.692903 -0.191291
v 0.127817 3.761311 -0.191291
v 0.162680 3.692903 -0.162680
v 0.162680 3.761311 -0.162680
v 0.191291 3.692903 -0.127817
v 0.191291 3.761311 -0.127817
v 0.212551 3.692903 -0.088042
v 0.212551 3.761311 -0.088042
v 0.225643 3.692903 -0.044883
v 0.225643 3.761311 -0.044883
v 0.230064 3.692903 -0.000000
v 0.230064 3.761311 -0.000000
v 0.225643 3.692903 0.044883
v 0.225643 3.761311 0.044883
v 0.212551 3.692903 0.088041
v 0.212551 3.761311 0.088041
v 0.191291 3.692903 0.127816
v 0.191291 3.761311 0.127816
v 0.162680 3.692903 0.162679
v 0.162680 3.761311 0.162679
v 0.127817 3.692903 0.191291
v 0.127817 3.761311 0.191291
v 0.088042 3.692903 0.212551
v 0.088042 3.761311 0.212551
v 0.044883 3.692903 0.225643
v 0.044883 3.761311 0.225643
v -0.000000 3.692903 0.230063
v -0.000000 3.761311 0.230063
v -0.044883 3.692903 0.225643
v -0.044883 3.761311 0.225643
v -0.088042 3.692903 0.212551
v -0.088042 3.761311 0.212551
v -0.127817 3.692903 0.191291
v -0.127817 3.761311 0.191291
v -0.162680 3.692903 0.162679
v -0.162680 3.761311 0.162679
v -0.191291 3.692903 0.127816
v -0.191291 3.761311 0.127816
v -0.212551 3.692903 0.088041
v -0.212551 3.761311 0.088041
v -0.225643 3.692903 0.044883
v -0.225643 3.761311 0.044883
v -0.230064 3.692903 -0.000000
v -0.230064 3.761311 -0.000000
v -0.225643 3.692903 -0.044884
v -0.225643 3.761311 -0.044884
v -0.212551 3.692903 -0.088042
v -0.212551 3.761311 -0.088042
v -0.191291 3.692903 -0.127817
v -0.191291 3.761311 -0.127817
v -0.162679 3.692903 -0.162680
v -0.162679 3.761311 -0.162680
v -0.127816 3.692903 -0.191291
v -0.127816 3.761311 -0.191291
v -0.088041 3.692903 -0.212551
v -0.088041 3.761311 -0.212551
v -0.044883 3.692903 -0.225643
v -0.044883 3.761311 -0.225643
v 0.000000 3.717743 -0.178334
v 0.034791 3.717743 -0.174907
v 0.068245 3.717743 -0.164759
v 0.099077 3.717743 -0.148279
v 0.126101 3.717743 -0.126101
v 0.148279 3.717743 -0.099077
v 0.164759 3.717743 -0.068246
v 0.174907 3.717743 -0.034791
v 0.178334 3.717743 -0.000000
v 0.174907 3.717743 0.034791
v 0.164759 3.717743 0.068245
v 0.148279 3.717743 0.099077
v 0.126101 3.717743 0.126101
v 0.099077 3.717743 0.148279
v 0.068245 3.717743 0.164759
v 0.034791 3.717743 0.174907
v -0.000000 3.717743 0.178334
v -0.034791 3.717743 0.174907
v -0.068245 3.717743 0.164759
v -0.099077 3.717743 0.148279
v -0.126101 3.717743 0.126101
v -0.148279 3.717743 0.099077
v -0.164759 3.717743 0.068245
v -0.174907 3.717743 0.034791
v -0.178334 3.717743 -0.000000
v -0.174907 3.717743 -0.034792
v -0.164759 3.717743 -0.068246
v -0.148279 3.717743 -0.099077
v -0.126101 3.717743 -0.126101
v -0.099077 3.717743 -0.148280
v -0.068245 3.717743 -0.164759
v -0.034791 3.717743 -0.174908
v 0.000000 3.679527 -0.136457
v 0.026622 3.679527 -0.133835
v 0.052220 3.679527 -0.126070
v 0.075812 3.679527 -0.113460
v 0.096490 3.679527 -0.096490
v 0.113460 3.679527 -0.075812
v 0.126070 3.679527 -0.052220
v 0.133835 3.679527 -0.026622
v 0.136457 3.679527 -0.000000
v 0.133835 3.679527 0.026621
v 0.126070 3.679527 0.052220
v 0.113460 3.679527 0.075811
v 0.096490 3.679527 0.096489
v 0.075812 3.679527 0.113460
v 0.052220 3.679527 0.126070
v 0.026621 3.679527 0.133835
v 0.000000 3.679527 0.136457
v -0.026621 3.679527 0.133835
v -0.052220 3.679527 0.126070
v -0.075811 3.679527 0.113460
v -0.096490 3.679527 0.096489
v -0.113460 3.679527 0.075811
v -0.126070 3.679527 0.052219
v -0.133835 3.679527 0.026621
v -0.136457 3.679527 -0.000000
v -0.133835 3.679527 -0.026622
v -0.126070 3.679527 -0.052220
v -0.113460 3.679527 -0.075812
v -0.096489 3.679527 -0.096490
v -0.075811 3.679527 -0.113460
v -0.052220 3.679527 -0.126070
v -0.026621 3.679527 -0.133835
v 0.000000 3.648954 -0.086612
v 0.016897 3.648954 -0.084948
v 0.033145 3.648954 -0.080019
v 0.048119 3.648954 -0.072015
v 0.061244 3.648954 -0.061244
v 0.072015 3.648954 -0.048119
v 0.080019 3.648954 -0.033145
v 0.084948 3.648954 -0.016897
v 0.086612 3.648954 -0.000000
v 0.084948 3.648954 0.016897
v 0.080019 3.648954 0.033145
v 0.072015 3.648954 0.048119
v 0.061244 3.648954 0.061243
v 0.048119 3.648954 0.072015
v 0.033145 3.648954 0.080019
v 0.016897 3.648954 0.084947
v 0.000000 3.648954 0.086611
v -0.016897 3.648954 0.084947
v -0.033145 3.648954 0.080019
v -0.048119 3.648954 0.072015
v -0.061244 3.648954 0.061243
v -0.072015 3.648954 0.048119
v -0.080019 3.648954 0.033145
v -0.084947 3.648954 0.016897
v -0.086612 3.648954 -0.000000
v -0.084947 3.648954 -0.016897
v -0.080019 3.648954 -0.033145
v -0.072015 3.648954 -0.048119
v -0.061244 3.648954 -0.061244
v -0.048119 3.648954 -0.072015
v -0.033145 3.648954 -0.080019
v -0.016897 3.648954 -0.084948
v 0.000000 3.664240 -0.053148
v 0.010369 3.664240 -0.052127
v 0.020339 3.664240 -0.049102
v 0.029527 3.664240 -0.044191
v 0.037581 3.664240 -0.037581
v 0.044191 3.664240 -0.029527
v 0.049102 3.664240 -0.020339
v 0.052126 3.664240 -0.010369
v 0.053148 3.664240 -0.000000
v 0.052126 3.664240 0.010368
v 0.049102 3.664240 0.020338
v 0.044191 3.664240 0.029527
v 0.037581 3.664240 0.037581
v 0.029527 3.664240 0.044190
v 0.020339 3.664240 0.049102
v 0.010369 3.664240 0.052126
v 0.000000 3.664240 0.053147
v -0.010369 3.664240 0.052126
v -0.020339 3.664240 0.049102
v -0.029527 3.664240 0.044190
v -0.037581 3.664240 0.037581
v -0.044190 3.664240 0.029527
v -0.049102 3.664240 0.020338
v -0.052126 3.664240 0.010368
v -0.053147 3.664240 -0.000000
v -0.052126 3.664240 -0.010369
v -0.049102 3.664240 -0.020339
v -0.044190 3.664240 -0.029527
v -0.037581 3.664240 -0.037581
v -0.029527 3.664240 -0.044191
v -0.020338 3.664240 -0.049102
v -0.010368 3.664240 -0.052127
vn -1.000000 0.000000 0.000000
vn 0.000000 0.000000 -1.000000
vn 1.000000 0.000000 0.000000
vn 0.000000 0.000000 1.000000
vn 0.000000 -1.000000 0.000000
vn 0.000000 1.000000 0.000000
vn 0.098000 0.000000 -0.995200
vn 0.290300 0.000000 -0.956900
vn 0.471400 0.000000 -0.881900
vn 0.634400 0.000000 -0.773000
vn 0.773000 0.000000 -0.634400
vn 0.881900 0.000000 -0.471400
vn 0.956900 0.000000 -0.290300
vn 0.995200 0.000000 -0.098000
vn 0.995200 0.000000 0.098000
vn 0.956900 0.000000 0.290300
vn 0.881900 0.000000 0.471400
vn 0.773000 0.000000 0.634400
vn 0.634400 0.000000 0.773000
vn 0.471400 0.000000 0.881900
vn 0.290300 0.000000 0.956900
vn 0.098000 0.000000 0.995200
vn -0.098000 0.000000 0.995200
vn -0.290300 0.000000 0.956900
vn -0.471400 0.000000 0.881900
vn -0.634400 0.000000 0.773000
vn -0.773000 0.000000 0.634400
vn -0.881900 0.000000 0.471400
vn -0.956900 0.000000 0.290300
vn -0.995200 0.000000 0.098000
vn -0.995200 0.000000 -0.098000
vn -0.956900 0.000000 -0.290300
vn -0.881900 0.000000 -0.471400
vn -0.773000 0.000000 -0.634400
vn -0.634400 0.000000 -0.773000
vn -0.471400 0.000000 -0.881900
vn -0.290300 0.000000 -0.956900
vn -0.098000 0.000000 -0.995200
vn -0.204900 -0.900600 0.383300
vn -0.318600 -0.737000 0.596100
vn -0.335900 -0.900600 -0.275700
vn 0.335900 -0.900600 -0.275700
vn 0.204900 -0.900600 0.383300
vn -0.432500 -0.900600 0.042600
vn 0.042600 -0.900600 -0.432500
vn 0.415900 -0.900600 0.126100
vn -0.275700 -0.900600 0.335900
vn -0.275700 -0.900600 -0.335900
vn 0.383300 -0.900600 -0.204900
vn 0.126200 -0.900600 0.415900
vn -0.432500 -0.900600 -0.042600
vn 0.126200 -0.900600 -0.415900
vn 0.383300 -0.900600 0.204900
vn -0.335900 -0.900600 0.275700
vn -0.204900 -0.900600 -0.383300
vn 0.415900 -0.900600 -0.126100
vn -0.042600 -0.900600 0.432500
vn 0.042600 -0.900600 0.432500
vn -0.415900 -0.900600 -0.126100
vn 0.204900 -0.900600 -0.383300
vn 0.335900 -0.900600 0.275700
vn -0.383300 -0.900600 0.204900
vn -0.126200 -0.900600 -0.415900
vn 0.432500 -0.900600 -0.042600
vn -0.126200 -0.900600 0.415900
vn -0.383300 -0.900600 -0.204900
vn 0.275700 -0.900600 -0.335900
vn 0.275700 -0.900600 0.335900
vn -0.415900 -0.900600 0.126100
vn -0.042600 -0.900600 -0.432500
vn 0.432500 -0.900600 0.042600
vn -0.462700 -0.851300 0.247300
vn 0.596100 -0.737000 -0.318600
vn -0.428800 -0.737000 0.522500
vn 0.646800 -0.737000 -0.196200
vn -0.522400 -0.737000 0.428800
vn 0.672600 -0.737000 -0.066200
vn -0.596100 -0.737000 0.318600
vn 0.672600 -0.737000 0.066200
vn -0.646800 -0.737000 0.196200
vn 0.646800 -0.737000 0.196200
vn -0.672600 -0.737000 0.066200
vn 0.596100 -0.737000 0.318600
vn -0.672600 -0.737000 -0.066200
vn 0.522400 -0.737000 0.428800
vn -0.646800 -0.737000 -0.196200
vn 0.428800 -0.737000 0.522400
vn -0.596100 -0.737000 -0.318600
vn 0.318600 -0.737000 0.596100
vn 0.066200 -0.737000 -0.672600
vn -0.522400 -0.737000 -0.428800
vn 0.196200 -0.737000 0.646800
vn 0.196200 -0.737000 -0.646800
vn -0.428800 -0.737000 -0.522400
vn 0.066200 -0.737000 0.672600
vn 0.318600 -0.737000 -0.596100
vn -0.318600 -0.737000 -0.596100
vn -0.066200 -0.737000 0.672600
vn 0.428800 -0.737000 -0.522400
vn -0.196200 -0.737000 -0.646800
vn -0.196200 -0.737000 0.646800
vn 0.522400 -0.737000 -0.428800
vn -0.066200 -0.737000 -0.672600
vn 0.415200 -0.908800 0.040900
vn 0.522200 -0.851300 0.051400
vn -0.502100 -0.851300 0.152300
vn 0.502100 -0.851300 0.152300
vn -0.522200 -0.851300 0.051400
vn 0.462700 -0.851300 0.247300
vn -0.522200 -0.851300 -0.051400
vn 0.405600 -0.851300 0.332800
vn -0.502100 -0.851300 -0.152300
vn 0.332900 -0.851300 0.405600
vn -0.462700 -0.851300 -0.247300
vn 0.247300 -0.851300 0.462700
vn 0.051400 -0.851300 -0.522200
vn -0.405600 -0.851300 -0.332800
vn 0.152300 -0.851300 0.502100
vn 0.152300 -0.851300 -0.502100
vn -0.332900 -0.851300 -0.405600
vn 0.051400 -0.851300 0.522200
vn 0.247300 -0.851300 -0.462700
vn -0.247300 -0.851300 -0.462700
vn -0.051400 -0.851300 0.522200
vn 0.332900 -0.851300 -0.405600
vn -0.152300 -0.851300 -0.502100
vn -0.152300 -0.851300 0.502100
vn 0.405600 -0.851300 -0.332800
vn -0.051400 -0.851300 -0.522200
vn -0.247300 -0.851300 0.462700
vn 0.462700 -0.851300 -0.247300
vn -0.332900 -0.851300 0.405600
vn 0.502100 -0.851300 -0.152300
vn -0.405600 -0.851300 0.332900
vn 0.522200 -0.851300 -0.051400
vn -0.322500 -0.908800 -0.264700
vn 0.399200 -0.908800 0.121100
vn -0.264600 -0.908800 -0.322500
vn 0.367900 -0.908800 0.196600
vn -0.196600 -0.908800 -0.367900
vn -0.040900 -0.908800 0.415200
vn 0.322500 -0.908800 0.264600
vn -0.121100 -0.908800 -0.399200
vn -0.121100 -0.908800 0.399200
vn 0.264600 -0.908800 0.322500
vn -0.040900 -0.908800 -0.415200
vn -0.196600 -0.908800 0.367900
vn 0.196600 -0.908800 0.367900
vn 0.040900 -0.908800 -0.415100
vn -0.264600 -0.908800 0.322500
vn 0.121100 -0.908800 0.399200
vn 0.121100 -0.908800 -0.399200
vn -0.322500 -0.908800 0.264600
vn 0.040900 -0.908800 0.415200
vn 0.196600 -0.908800 -0.367900
vn -0.367900 -0.908800 0.196700
vn 0.264600 -0.908800 -0.322500
vn -0.399200 -0.908800 0.121100
vn 0.322500 -0.908800 -0.264700
vn -0.415200 -0.908800 0.040900
vn 0.367900 -0.908800 -0.196700
vn -0.415200 -0.908800 -0.040900
vn 0.399200 -0.908800 -0.121100
vn -0.399200 -0.908800 -0.121100
vn 0.415200 -0.908800 -0.040900
vn -0.367900 -0.908800 -0.196600
usemtl None
s off
f 2//1 4//1 3//1 1//1
f 4//2 8//2 7//2 3//2
f 8//3 6//3 5//3 7//3
f 6//4 2//4 1//4 5//4
f 1//5 3//5 7//5 5//5
f 6//6 8//6 4//6 2//6
f 9//7 10//7 12//7 11//7
f 11//8 12//8 14//8 13//8
f 13//9 14//9 16//9 15//9
f 15//10 16//10 18//10 17//10
f 17//11 18//11 20//11 19//11
f 19//12 20//12 22//12 21//12
f 21//13 22//13 24//13 23//13
f 23//14 24//14 26//14 25//14
f 25//15 26//15 28//15 27//15
f 27//16 28//16 30//16 29//16
f 29//17 30//17 32//17 31//17
f 31//18 32//18 34//18 33//18
f 33//19 34//19 36//19 35//19
f 35//20 36//20 38//20 37//20
f 37//21 38//21 40//21 39//21
f 39//22 40//22 42//22 41//22
f 41//23 42//23 44//23 43//23
f 43//24 44//24 46//24 45//24
f 45//25 46//25 48//25 47//25
f 47//26 48//26 50//26 49//26
f 49//27 50//27 52//27 51//27
f 51//28 52//28 54//28 53//28
f 53//29 54//29 56//29 55//29
f 55//30 56//30 58//30 57//30
f 57//31 58//31 60//31 59//31
f 59//32 60//32 62//32 61//32
f 61//33 62//33 64//33 63//33
f 63//34 64//34 66//34 65//34
f 65//35 66//35 68//35 67//35
f 67//36 68//36 70//36 69//36
f 69//37 70//37 72//37 71//37
f 71//38 72//38 10//38 9//38
f 13//39 15//39 76//39 75//39
f 91//40 92//40 124//40 123//40
f 31//41 33//41 85//41 84//41
f 49//42 51//42 94//42 93//42
f 67//43 69//43 103//43 102//43
f 23//44 25//44 81//44 80//44
f 41//45 43//45 90//45 89//45
f 59//46 61//46 99//46 98//46
f 15//47 17//47 77//47 76//47
f 33//48 35//48 86//48 85//48
f 51//49 53//49 95//49 94//49
f 69//50 71//50 104//50 103//50
f 25//51 27//51 82//51 81//51
f 43//52 45//52 91//52 90//52
f 61//53 63//53 100//53 99//53
f 17//54 19//54 78//54 77//54
f 35//55 37//55 87//55 86//55
f 53//56 55//56 96//56 95//56
f 9//57 11//57 74//57 73//57
f 71//58 9//58 73//58 104//58
f 27//59 29//59 83//59 82//59
f 45//60 47//60 92//60 91//60
f 63//61 65//61 101//61 100//61
f 19//62 21//62 79//62 78//62
f 37//63 39//63 88//63 87//63
f 55//64 57//64 97//64 96//64
f 11//65 13//65 75//65 74//65
f 29//66 31//66 84//66 83//66
f 47//67 49//67 93//67 92//67
f 65//68 67//68 102//68 101//68
f 21//69 23//69 80//69 79//69
f 39//70 41//70 89//70 88//70
f 57//71 59//71 98//71 97//71
f 126//72 127//72 159//72 158//72
f 78//73 79//73 111//73 110//73
f 92//74 93//74 125//74 124//74
f 79//75 80//75 112//75 111//75
f 93//76 94//76 126//76 125//76
f 80//77 81//77 113//77 112//77
f 94//78 95//78 127//78 126//78
f 81//79 82//79 114//79 113//79
f 95//80 96//80 128//80 127//80
f 82//81 83//81 115//81 114//81
f 96//82 97//82 129//82 128//82
f 83//83 84//83 116//83 115//83
f 97//84 98//84 130//84 129//84
f 84//85 85//85 117//85 116//85
f 98//86 99//86 131//86 130//86
f 85//87 86//87 118//87 117//87
f 99//88 100//88 132//88 131//88
f 86//89 87//89 119//89 118//89
f 73//90 74//90 106//90 105//90
f 100//91 101//91 133//91 132//91
f 87//92 88//92 120//92 119//92
f 74//93 75//93 107//93 106//93
f 101//94 102//94 134//94 133//94
f 88//95 89//95 121//95 120//95
f 75//96 76//96 108//96 107//96
f 102//97 103//97 135//97 134//97
f 89//98 90//98 122//98 121//98
f 76//99 77//99 109//99 108//99
f 103//100 104//100 136//100 135//100
f 90//101 91//101 123//101 122//101
f 77//102 78//102 110//102 109//102
f 104//103 73//103 105//103 136//103
f 161//104 162//104 194//104 193//104
f 113//105 114//105 146//105 145//105
f 127//106 128//106 160//106 159//106
f 114//107 115//107 147//107 146//107
f 128//108 129//108 161//108 160//108
f 115//109 116//109 148//109 147//109
f 129//110 130//110 162//110 161//110
f 116//111 117//111 149//111 148//111
f 130//112 131//112 163//112 162//112
f 117//113 118//113 150//113 149//113
f 131//114 132//114 164//114 163//114
f 118//115 119//115 151//115 150//115
f 105//116 106//116 138//116 137//116
f 132//117 133//117 165//117 164//117
f 119//118 120//118 152//118 151//118
f 106//119 107//119 139//119 138//119
f 133//120 134//120 166//120 165//120
f 120//121 121//121 153//121 152//121
f 107//122 108//122 140//122 139//122
f 134//123 135//123 167//123 166//123
f 121//124 122//124 154//124 153//124
f 108//125 109//125 141//125 140//125
f 135//126 136//126 168//126 167//126
f 122//127 123//127 155//127 154//127
f 109//128 110//128 142//128 141//128
f 136//129 105//129 137//129 168//129
f 123//130 124//130 156//130 155//130
f 110//131 111//131 143//131 142//131
f 124//132 125//132 157//132 156//132
f 111//133 112//133 144//133 143//133
f 125//134 126//134 158//134 157//134
f 112//135 113//135 145//135 144//135
f 169//5 170//5 171//5 172//5 173//5 174//5 175//5 176//5 177//5 178//5 179//5 180//5 181//5 182//5 183//5 184//5 185//5 186//5 187//5 188//5 189//5 190//5 191//5 192//5 193//5 194//5 195//5 196//5 197//5 198//5 199//5 200//5
f 148//136 149//136 181//136 180//136
f 162//137 163//137 195//137 194//137
f 149//138 150//138 182//138 181//138
f 163//139 164//139 196//139 195//139
f 150//140 151//140 183//140 182//140
f 137//141 138//141 170//141 169//141
f 164//142 165//142 197//142 196//142
f 151//143 152//143 184//143 183//143
f 138//144 139//144 171//144 170//144
f 165//145 166//145 198//145 197//145
f 152//146 153//146 185//146 184//146
f 139//147 140//147 172//147 171//147
f 166//148 167//148 199//148 198//148
f 153//149 154//149 186//149 185//149
f 140//150 141//150 173//150 172//150
f 167//151 168//151 200//151 199//151
f 154//152 155//152 187//152 186//152
f 141//153 142//153 174//153 173//153
f 168//154 137//154 169//154 200//154
f 155//155 156//155 188//155 187//155
f 142//156 143//156 175//156 174//156
f 156//157 157//157 189//157 188//157
f 143//158 144//158 176//158 175//158
f 157//159 158//159 190//159 189//159
f 144//160 145//160 177//160 176//160
f 158//161 159//161 191//161 190//161
f 145//162 146//162 178//162 177//162
f 159//163 160//163 192//163 191//163
f 146//164 147//164 179//164 178//164
f 160//165 161//165 193//165 192//165
f 147//166 148//166 180//166 179//166
